<svg xmlns="http://www.w3.org/2000/svg" viewBox="0 0 319.4819 38.2457"><path d="M19.6212,13.4825a5.49,5.49,0,0,0,2.2409-.7517,2.75,2.75,0,0,1,1.0037-.3925A6.2169,6.2169,0,0,0,20.4184,5.353a7.2454,7.2454,0,0,0-5.0435-.8518,10.436,10.436,0,0,0-4.3281,2.2353c-.4328.3626-5.581,5.2428-7.7283,4.27C1.8658,10.3486,4.46,7.9537,3.27,5.7652a.0949.0949,0,0,0-.1584-.0105c-.6056.817-1.1976,1.7975-2.0041,1.3573A3.7988,3.7988,0,0,1,.1729,5.89.0941.0941,0,0,0,0,5.9434a9.9185,9.9185,0,0,0,2.4932,6.0532,15.0278,15.0278,0,0,0,10.339,5.3173c2.27.2261,7.6543-.49,9.8054-4.36a5.4574,5.4574,0,0,0-.5189.2577,6.04,6.04,0,0,1-2.448.8142c-.0748.0069-.1491.01-.2234.01a4.3218,4.3218,0,0,1-2.44-.9782.4573.4573,0,1,1,.3495-.4436l-.0023.0218A3.5637,3.5637,0,0,0,19.6212,13.4825ZM12.76,15.5084a8.3323,8.3323,0,0,1-1.9609.3562c-.4428,0-.627-.1255-.7147-.314-.2306-.4961.6005-1.2133,1.3378-1.7279a.2726.2726,0,0,1,.312.4472,4.4932,4.4932,0,0,0-1.1262,1.0351,5.352,5.352,0,0,0,2.0105-.3235.2728.2728,0,0,1,.1415.5269ZM19.0763,8.863a1.0412,1.0412,0,0,1,1.0109,1.0032.68.68,0,1,0-.6023.9942.7023.7023,0,0,0,.1263-.0126.9691.9691,0,0,1-.5349.1646,1.0763,1.0763,0,0,1,0-2.1494ZM15.5649,1.8843a.5453.5453,0,0,0,.2143.7407c.2638.1453.82-.1708,1.1567.3.1751.2449-.3665-1.11-.63-1.2554A.5449.5449,0,0,0,15.5649,1.8843Zm2.7777.0584c-.68.3984-.8055,2.0455-.63,1.8007a3.1,3.1,0,0,1,1.1567-.8456.5453.5453,0,0,0-.5264-.9551ZM17.6534.1266c-.3475.402-.11,1.4443-.0473,1.2532a2.216,2.216,0,0,1,.5595-.7875.3573.3573,0,0,0-.0087-.505A.3538.3538,0,0,0,17.6534.1266Z" style="fill:#e1232b"/><path d="M1.2051,20.5944H4.62v.41H1.6973v2.7481H4.3838v.41H1.6973v3.3428H1.2051Z" style="fill:#808184"/><path d="M6.4355,20.5944v6.9111H5.9434V20.5944Z" style="fill:#808184"/><path d="M8.1069,20.6969a10.2978,10.2978,0,0,1,1.774-.1538,3.7464,3.7464,0,0,1,2.789.9433,3.2947,3.2947,0,0,1,.8614,2.3995,3.78,3.78,0,0,1-.9024,2.6147A3.9543,3.9543,0,0,1,9.645,27.5568a15.0553,15.0553,0,0,1-1.5381-.0616Zm.4922,6.3984a8.5161,8.5161,0,0,0,1.1177.0513,2.96,2.96,0,0,0,3.312-3.24c.0205-1.7535-.9536-2.9532-3.1787-2.9532a6.2767,6.2767,0,0,0-1.251.1128Z" style="fill:#808184"/><path d="M14.7422,20.5944h.4922v6.5009h3.0761v.41H14.7422Z" style="fill:#808184"/><path d="M22.5874,24.07H19.8291v3.0249h3.0864v.41H19.3369V20.5944h3.4146v.41H19.8291V23.66h2.7583Z" style="fill:#808184"/><path d="M39.1846,4.6617h5.874v1.26H40.6753V9.9679h4.064V11.21h-4.064v5.4126H39.1846Z"/><path d="M49.67,16.8c-2.0942,0-3.727-1.5971-3.727-4.4184,0-2.9639,1.7392-4.5254,3.851-4.5254,2.1827,0,3.7266,1.6679,3.7266,4.4189,0,3.23-2.0054,4.5249-3.833,4.5249Zm.0708-1.1357c1.4019,0,2.2539-1.5791,2.2539-3.354,0-1.4195-.5859-3.3184-2.2539-3.3184-1.65,0-2.2715,1.81-2.2715,3.354,0,1.7393.834,3.3184,2.2539,3.3184Z"/><path d="M55.3457,10.5714c0-.9228-.0356-1.7925-.0708-2.5376h1.313l.0708,1.5972h.0537a2.4268,2.4268,0,0,1,2.2-1.7749,2.4683,2.4683,0,0,1,.3906.0356V9.3468a1.6584,1.6584,0,0,0-.4438-.0356,2.094,2.094,0,0,0-1.97,1.9345,4.7283,4.7283,0,0,0-.0532.7451v4.6319H55.3457Z"/><path d="M60.7212,10.3229c0-.9229-.0357-1.58-.0708-2.2891h1.313l.0708,1.2954H62.07a2.7267,2.7267,0,0,1,2.4844-1.4731,2.3279,2.3279,0,0,1,2.2363,1.5971h.0352a3.3136,3.3136,0,0,1,.9228-1.0825,2.6718,2.6718,0,0,1,1.668-.5146c1.1538,0,2.6089.7807,2.6089,3.5136v5.253H70.5522V11.6183c0-1.5083-.479-2.52-1.6679-2.52a1.8265,1.8265,0,0,0-1.668,1.3667,2.6661,2.6661,0,0,0-.1064.7807v5.377H65.6367V11.3346c0-1.2422-.479-2.2363-1.5971-2.2363a1.9,1.9,0,0,0-1.7388,1.5083,2.6343,2.6343,0,0,0-.1065.7631v5.253H60.7212Z"/><path d="M79.9712,14.6a12.0266,12.0266,0,0,0,.1245,2.023H78.7471l-.1245-1.0293h-.0533A2.8,2.8,0,0,1,76.209,16.8a2.3557,2.3557,0,0,1-2.4312-2.4663c0-2.0942,1.7925-3.1767,4.7027-3.1592v-.2129c0-.8339-.2305-1.9873-1.7744-1.97a3.5381,3.5381,0,0,0-1.9873.586l-.3375-1.0293a4.9562,4.9562,0,0,1,2.5733-.6924c2.3423,0,3.0166,1.5971,3.0166,3.39Zm-1.4551-2.3779c-1.4018-.0181-3.2475.23-3.2475,1.9521a1.314,1.314,0,0,0,1.331,1.49A1.8578,1.8578,0,0,0,78.4453,14.28a1.6053,1.6053,0,0,0,.0708-.4971Z"/><path d="M84.0146,5.9928v2.041h2.0586V9.17H84.0146V13.943c0,1.0825.3375,1.5972,1.1,1.5972a3.1034,3.1034,0,0,0,.7989-.0889l.0532,1.1357a3.7008,3.7008,0,0,1-1.2778.1953,2.0422,2.0422,0,0,1-1.5791-.6211,3.2973,3.2973,0,0,1-.5679-2.2182V9.17H81.2993V8.0338H82.542V6.49Z"/><path d="M88.3965,6.6139a.8954.8954,0,0,1-.9048-.94.9142.9142,0,0,1,.9224-.9585.9042.9042,0,0,1,.9228.9585.89.89,0,0,1-.9228.94Zm-.71,10.0088V8.0338h1.4907v8.5889Z"/><path d="M94.7305,16.8c-2.0943,0-3.7271-1.5971-3.7271-4.4184,0-2.9639,1.7393-4.5254,3.8511-4.5254,2.1826,0,3.7266,1.6679,3.7266,4.4189,0,3.23-2.0054,4.5249-3.8331,4.5249Zm.0708-1.1357c1.4018,0,2.2539-1.5791,2.2539-3.354,0-1.4195-.586-3.3184-2.2539-3.3184-1.65,0-2.2715,1.81-2.2715,3.354,0,1.7393.834,3.3184,2.2539,3.3184Z"/><path d="M100.4238,10.3229c0-.9229-.0351-1.58-.0708-2.2891h1.313l.0889,1.2954h.0356a2.8837,2.8837,0,0,1,2.5733-1.4731c1.1709,0,2.7329.7632,2.7329,3.4428v5.3238H105.606V11.4943c0-1.2779-.4258-2.396-1.7393-2.396a1.9934,1.9934,0,0,0-1.8633,1.5439,2.9159,2.9159,0,0,0-.0888.7275v5.253h-1.4908Z"/><path d="M114.4922,4.6617v11.961h-1.4907V4.6617Z"/><path d="M117.0991,10.3229c0-.9229-.0351-1.58-.0708-2.2891h1.313l.0889,1.2954h.0356a2.8837,2.8837,0,0,1,2.5733-1.4731c1.1709,0,2.7329.7632,2.7329,3.4428v5.3238h-1.4907V11.4943c0-1.2779-.4263-2.396-1.7393-2.396a1.9933,1.9933,0,0,0-1.8633,1.5439,2.9156,2.9156,0,0,0-.0889.7275v5.253h-1.4907Z"/><path d="M127.8682,5.9928v2.041h2.0586V9.17h-2.0586V13.943c0,1.0825.3374,1.5972,1.1,1.5972a3.1031,3.1031,0,0,0,.7988-.0889l.0532,1.1357a3.7,3.7,0,0,1-1.2778.1953,2.0422,2.0422,0,0,1-1.5791-.6211,3.2978,3.2978,0,0,1-.5679-2.2182V9.17h-1.2427V8.0338h1.2427V6.49Z"/><path d="M131.5225,10.5714c0-.9228-.0357-1.7925-.0708-2.5376h1.3129l.0708,1.5972h.0538a2.4267,2.4267,0,0,1,2.2-1.7749,2.47,2.47,0,0,1,.3906.0356V9.3468a1.6588,1.6588,0,0,0-.4439-.0356,2.0938,2.0938,0,0,0-1.97,1.9345,4.7283,4.7283,0,0,0-.0532.7451v4.6319h-1.4907Z"/><path d="M139.8794,16.8c-2.0942,0-3.7271-1.5971-3.7271-4.4184,0-2.9639,1.7393-4.5254,3.8511-4.5254,2.1826,0,3.7266,1.6679,3.7266,4.4189,0,3.23-2.0054,4.5249-3.833,4.5249Zm.0708-1.1357c1.4019,0,2.2539-1.5791,2.2539-3.354,0-1.4195-.5859-3.3184-2.2539-3.3184-1.65,0-2.2715,1.81-2.2715,3.354,0,1.7393.834,3.3184,2.2539,3.3184Z"/><path d="M152.2988,4.1119V14.4576c0,.71.0352,1.5972.0708,2.1651h-1.313l-.0888-1.3662h-.0532A2.7961,2.7961,0,0,1,148.3413,16.8c-1.8989,0-3.3364-1.7036-3.3364-4.3828,0-2.9106,1.6152-4.561,3.4785-4.561a2.4864,2.4864,0,0,1,2.2891,1.207h.0356V4.1119Zm-1.4907,7.3467a3.9173,3.9173,0,0,0-.0532-.6387,2.0659,2.0659,0,0,0-1.97-1.7568c-1.4732,0-2.2715,1.4727-2.2715,3.3008,0,1.7568.7451,3.2119,2.2358,3.2119a2.0875,2.0875,0,0,0,1.9873-1.7568,2.27,2.27,0,0,0,.0713-.6392Z"/><path d="M161.24,14.28c0,.9048.0357,1.668.0713,2.3423h-1.3134l-.0889-1.2422h-.0352A2.9219,2.9219,0,0,1,157.3359,16.8c-1.4023,0-2.6977-.8691-2.6977-3.62V8.0338h1.4907v4.8975c0,1.5439.4258,2.6264,1.686,2.6264a1.9728,1.9728,0,0,0,1.81-1.3486,2.6966,2.6966,0,0,0,.124-.7983V8.0338H161.24Z"/><path d="M169.1689,16.3385a4.9267,4.9267,0,0,1-2.1469.4438c-2.36,0-3.94-1.686-3.94-4.3833a4.314,4.314,0,0,1,6.14-4.1347l-.3369,1.1533a3.4218,3.4218,0,0,0-1.5616-.3545c-1.7924,0-2.7153,1.5259-2.7153,3.2827,0,1.9878,1.1182,3.2119,2.6973,3.2119a3.8425,3.8425,0,0,0,1.6328-.3549Z"/><path d="M172.8579,5.9928v2.041h2.0586V9.17h-2.0586V13.943c0,1.0825.3374,1.5972,1.1,1.5972a3.1025,3.1025,0,0,0,.7988-.0889l.0533,1.1357a3.7011,3.7011,0,0,1-1.2779.1953,2.0424,2.0424,0,0,1-1.5791-.6211,3.2979,3.2979,0,0,1-.5678-2.2182V9.17h-1.2422V8.0338h1.2422V6.49Z"/><path d="M177.2393,6.6139a.8954.8954,0,0,1-.9048-.94.9142.9142,0,0,1,.9223-.9585.9043.9043,0,0,1,.9229.9585.89.89,0,0,1-.9229.94Zm-.71,10.0088V8.0338H178.02v8.5889Z"/><path d="M183.5732,16.8c-2.0942,0-3.727-1.5971-3.727-4.4184,0-2.9639,1.7392-4.5254,3.8511-4.5254,2.1826,0,3.7265,1.6679,3.7265,4.4189,0,3.23-2.0053,4.5249-3.833,4.5249Zm.0708-1.1357c1.4019,0,2.2539-1.5791,2.2539-3.354,0-1.4195-.5859-3.3184-2.2539-3.3184-1.65,0-2.2714,1.81-2.2714,3.354,0,1.7393.8339,3.3184,2.2539,3.3184Z"/><path d="M189.2666,10.3229c0-.9229-.0352-1.58-.0708-2.2891h1.313l.0889,1.2954h.0356a2.8836,2.8836,0,0,1,2.5732-1.4731c1.1709,0,2.733.7632,2.733,3.4428v5.3238h-1.4908V11.4943c0-1.2779-.4258-2.396-1.7392-2.396a1.9933,1.9933,0,0,0-1.8633,1.5439,2.9156,2.9156,0,0,0-.0889.7275v5.253h-1.4907Z"/><path d="M207.3638,14.6a12.0161,12.0161,0,0,0,.1245,2.023H206.14l-.1245-1.0293h-.0532a2.8,2.8,0,0,1-2.36,1.2065,2.3557,2.3557,0,0,1-2.4312-2.4663c0-2.0942,1.7925-3.1767,4.7026-3.1592v-.2129c0-.8339-.23-1.9873-1.7744-1.97a3.5386,3.5386,0,0,0-1.9873.586l-.3374-1.0293a4.9557,4.9557,0,0,1,2.5733-.6924c2.3423,0,3.0166,1.5971,3.0166,3.39Zm-1.4551-2.3779c-1.4019-.0181-3.2476.23-3.2476,1.9521a1.314,1.314,0,0,0,1.3311,1.49,1.8578,1.8578,0,0,0,1.8457-1.3838,1.6053,1.6053,0,0,0,.0708-.4971Z"/><path d="M216.27,14.28c0,.9048.0357,1.668.0713,2.3423h-1.3135l-.0888-1.2422h-.0352A2.922,2.922,0,0,1,212.3657,16.8c-1.4023,0-2.6977-.8691-2.6977-3.62V8.0338h1.4907v4.8975c0,1.5439.4258,2.6264,1.686,2.6264a1.9728,1.9728,0,0,0,1.81-1.3486,2.6966,2.6966,0,0,0,.124-.7983V8.0338H216.27Z"/><path d="M222.21,4.8214a15.1011,15.1011,0,0,1,2.8394-.248,6.0353,6.0353,0,0,1,4.2417,1.3129A5.6765,5.6765,0,0,1,230.96,10.34a6.5215,6.5215,0,0,1-1.6328,4.774,6.4413,6.4413,0,0,1-4.7027,1.5971,22.7951,22.7951,0,0,1-2.4136-.1245Zm1.4908,10.6123a8.9087,8.9087,0,0,0,1.2422.0532c2.7685,0,4.4545-1.6147,4.4545-5.0932.0176-2.8926-1.3842-4.6314-4.2416-4.6314a7.3789,7.3789,0,0,0-1.4551.124Z"/><path d="M233.76,12.5587c.0175,2.2715,1.2773,3.0523,2.6616,3.0523a4.78,4.78,0,0,0,2.0942-.4082l.2486,1.0825a6.0768,6.0768,0,0,1-2.5557.497c-2.4668,0-3.9043-1.7211-3.9043-4.33,0-2.6441,1.4375-4.5962,3.709-4.5962,2.4844,0,3.1943,2.2715,3.1943,3.9575a3.8783,3.8783,0,0,1-.0532.7451Zm4.01-1.0825c.0181-1.2066-.4614-2.52-1.8989-2.52-1.3838,0-1.9873,1.4018-2.0938,2.52Z"/><path d="M241.92,12.5587c.0176,2.2715,1.2774,3.0523,2.6616,3.0523a4.7812,4.7812,0,0,0,2.0943-.4082l.248,1.0825a6.0716,6.0716,0,0,1-2.5552.497c-2.4668,0-3.9043-1.7211-3.9043-4.33,0-2.6441,1.4375-4.5962,3.709-4.5962,2.4844,0,3.1944,2.2715,3.1944,3.9575a3.8685,3.8685,0,0,1-.0533.7451Zm4.01-1.0825c.018-1.2066-.4615-2.52-1.899-2.52-1.3838,0-1.9873,1.4018-2.0937,2.52Z"/><path d="M249.1753,10.8019c0-1.1709-.0357-2.023-.0708-2.7681h1.3306l.0888,1.3486h.0357a2.9638,2.9638,0,0,1,2.68-1.5263c1.9165,0,3.3007,1.7036,3.3007,4.3657,0,3.123-1.7216,4.5781-3.5317,4.5781a2.5777,2.5777,0,0,1-2.3066-1.2422h-.0357v4.543h-1.4907Zm1.4907,2.4311a2.6626,2.6626,0,0,0,.0708.6568,2.068,2.068,0,0,0,2.0054,1.7036c1.5083,0,2.2891-1.42,2.2891-3.3008,0-1.7393-.7627-3.2119-2.2535-3.2119a2.2068,2.2068,0,0,0-2.0229,1.81,2.5255,2.5255,0,0,0-.0889.6387Z"/><path d="M261.9126,4.6617h1.4907V15.3629h4.5786v1.26h-6.0693Z"/><path d="M270.1807,12.5587c.0175,2.2715,1.2773,3.0523,2.6616,3.0523a4.78,4.78,0,0,0,2.0942-.4082l.2486,1.0825a6.0768,6.0768,0,0,1-2.5557.497c-2.4668,0-3.9043-1.7211-3.9043-4.33,0-2.6441,1.4375-4.5962,3.709-4.5962,2.4844,0,3.1943,2.2715,3.1943,3.9575a3.8783,3.8783,0,0,1-.0532.7451Zm4.01-1.0825c.0181-1.2066-.4614-2.52-1.8989-2.52-1.3838,0-1.9873,1.4018-2.0938,2.52Z"/><path d="M283.0254,14.6a12.0266,12.0266,0,0,0,.1245,2.023h-1.3486l-.1245-1.0293h-.0533a2.8,2.8,0,0,1-2.36,1.2065,2.3557,2.3557,0,0,1-2.4312-2.4663c0-2.0942,1.7925-3.1767,4.7027-3.1592v-.2129c0-.8339-.2305-1.9873-1.7744-1.97a3.5387,3.5387,0,0,0-1.9874.586l-.3374-1.0293a4.9562,4.9562,0,0,1,2.5733-.6924c2.3423,0,3.0166,1.5971,3.0166,3.39ZM281.57,12.2218c-1.4018-.0181-3.2475.23-3.2475,1.9521a1.314,1.314,0,0,0,1.331,1.49A1.8578,1.8578,0,0,0,281.5,14.28a1.6053,1.6053,0,0,0,.0708-.4971Z"/><path d="M285.3652,10.5714c0-.9228-.0356-1.7925-.0708-2.5376h1.313l.0708,1.5972h.0537a2.4268,2.4268,0,0,1,2.2-1.7749,2.4708,2.4708,0,0,1,.3907.0356V9.3468a1.66,1.66,0,0,0-.4439-.0356,2.0938,2.0938,0,0,0-1.97,1.9345,4.7163,4.7163,0,0,0-.0532.7451v4.6319h-1.4908Z"/><path d="M290.7583,10.3229c0-.9229-.0352-1.58-.0708-2.2891h1.313l.0889,1.2954h.0356a2.8836,2.8836,0,0,1,2.5732-1.4731c1.1709,0,2.733.7632,2.733,3.4428v5.3238H295.94V11.4943c0-1.2779-.4262-2.396-1.7392-2.396a1.9933,1.9933,0,0,0-1.8633,1.5439,2.9156,2.9156,0,0,0-.0889.7275v5.253h-1.4907Z"/><path d="M300.5156,6.6139a.8954.8954,0,0,1-.9048-.94.9143.9143,0,0,1,.9224-.9585.9043.9043,0,0,1,.9229.9585.89.89,0,0,1-.9229.94Zm-.71,10.0088V8.0338h1.4907v8.5889Z"/><path d="M303.6909,10.3229c0-.9229-.0351-1.58-.0708-2.2891h1.313l.0889,1.2954h.0356a2.8837,2.8837,0,0,1,2.5733-1.4731c1.1709,0,2.7329.7632,2.7329,3.4428v5.3238H308.873V11.4943c0-1.2779-.4262-2.396-1.7392-2.396a1.9933,1.9933,0,0,0-1.8633,1.5439,2.9156,2.9156,0,0,0-.0889.7275v5.253h-1.4907Z"/><path d="M319.4111,15.4161c0,2.0762-.373,3.1587-1.1006,3.8687a4.1522,4.1522,0,0,1-2.8745.9936,5.2068,5.2068,0,0,1-2.5732-.6211l.3726-1.1538a4.4241,4.4241,0,0,0,2.2358.586c1.4551,0,2.4668-.7808,2.4668-2.875V15.274h-.0357a2.6328,2.6328,0,0,1-2.3955,1.3311c-1.9521,0-3.3183-1.7925-3.3183-4.2236,0-2.9815,1.7568-4.5254,3.5136-4.5254a2.5526,2.5526,0,0,1,2.36,1.3667h.0357l.0712-1.189h1.313c-.0356.603-.0708,1.3306-.0708,2.4487ZM317.92,11.2989a2.6236,2.6236,0,0,0-.0713-.6743,2.0022,2.0022,0,0,0-1.9165-1.5615c-1.331,0-2.2358,1.2773-2.2358,3.2471,0,1.8457.8164,3.1235,2.2358,3.1235a1.9568,1.9568,0,0,0,1.8814-1.4907,2.5966,2.5966,0,0,0,.1064-.8164Z"/><line x1="30.9665" y1="4.4557" x2="30.9665" y2="27.3725" style="fill:#59595b"/><path d="M39.6577,21.8619H39.98V24.005h.0141a1.1244,1.1244,0,0,1,1.0787-.6372c.7285,0,1.2744.6514,1.2744,1.7226,0,1.2188-.6934,1.7789-1.3374,1.7789a1.1071,1.1071,0,0,1-1.0508-.6373h-.021l-.021.5674H39.63c.0141-.2031.0278-.5322.0278-.7495Zm.3223,3.6768a.8339.8339,0,0,0,.0283.2309.9879.9879,0,0,0,.9595.8267c.6933,0,1.05-.6582,1.05-1.499,0-.7564-.35-1.4566-1.0367-1.4566a1.0622,1.0622,0,0,0-.9663.8614,1.136,1.136,0,0,0-.0351.28Z"/><path d="M43.0176,23.4376l.77,2.15c.0913.2588.168.5249.2241.7422h.0142c.063-.2031.1469-.4761.2309-.7564l.7217-2.1362h.3428l-.8472,2.3252a5.9374,5.9374,0,0,1-1.0576,2.1714,1.97,1.97,0,0,1-.5606.3921l-.1259-.273a1.7423,1.7423,0,0,0,.56-.4135,2.8542,2.8542,0,0,0,.49-.7915.4725.4725,0,0,0,.0346-.1607.4391.4391,0,0,0-.0278-.14l-1.1138-3.11Z"/><path d="M50.1523,26.6525a2.4922,2.4922,0,0,1-1.0922.21c-1.0157,0-1.9961-.6865-1.9961-2.3882a2.1653,2.1653,0,0,1,2.1289-2.4585,2.0109,2.0109,0,0,1,.9316.1753l-.105.28a1.8936,1.8936,0,0,0-.8335-.1753c-1.0434,0-1.7861.7354-1.7861,2.1641,0,1.394.6934,2.1152,1.751,2.1152a1.9628,1.9628,0,0,0,.9033-.189Z"/><path d="M50.8789,26.7994V22.0787h.3149L52.77,24.7613c.336.5953.6021,1.0928.8194,1.5831l.0136-.0074c-.0488-.7143-.0556-1.2324-.0556-1.9887v-2.27h.3149v4.7207h-.3081L51.9854,24.11a14.7383,14.7383,0,0,1-.8194-1.583l-.021.0073c.042.623.0488,1.1343.0488,1.9961v2.269Z"/><path d="M54.9248,22.1417a4.1572,4.1572,0,0,1,.9033-.0976,1.5718,1.5718,0,0,1,1.17.3711,1.22,1.22,0,0,1,.3223.8613,1.2446,1.2446,0,0,1-.8755,1.2329v.0137c.3711.1123.5952.4692.7071,1.0434a6.0236,6.0236,0,0,0,.3222,1.2329h-.3359a6.9147,6.9147,0,0,1-.2871-1.1626c-.1333-.6792-.4136-.98-1.0088-1.0014h-.5952v2.164h-.3223Zm.3223,2.2344h.602a1.0324,1.0324,0,0,0,1.1421-1.0435c0-.7006-.4482-1.0224-1.17-1.0224a2.5158,2.5158,0,0,0-.5742.0556Z"/><path d="M58.0327,26.3092a1.7089,1.7089,0,0,0,.9107.2729.9544.9544,0,0,0,1.0576-.9731c0-.5186-.2735-.8335-.8614-1.1069-.5883-.2451-1.1137-.6372-1.1137-1.3028a1.1968,1.1968,0,0,1,1.2886-1.1836,1.55,1.55,0,0,1,.84.21l-.126.2729a1.3664,1.3664,0,0,0-.7422-.2031.846.846,0,0,0-.9385.84c0,.54.3008.7915.9034,1.0718.7.3433,1.0717.7144,1.0717,1.3726a1.27,1.27,0,0,1-1.4008,1.2817,1.87,1.87,0,0,1-1.0088-.2871Z"/><path d="M63.8921,24.7755v.2871H62.2393v-.2871Z"/><path d="M66.0337,22.1417a5.1231,5.1231,0,0,1,1.0225-.0976,2.2048,2.2048,0,0,1,1.625.5459,2.2931,2.2931,0,0,1,.6093,1.7231,2.6818,2.6818,0,0,1-.5884,1.8491,2.3062,2.3062,0,0,1-1.7861.6724,7.2309,7.2309,0,0,1-.8823-.042Zm.3223,4.3848a3.9324,3.9324,0,0,0,.6025.0278c1.2676,0,1.9956-.7212,1.9956-2.22a1.7593,1.7593,0,0,0-1.9116-2.0171,3.4024,3.4024,0,0,0-.6865.063Z"/><path d="M70.1982,25.0553c0,1.1626.5533,1.5268,1.149,1.5268a1.601,1.601,0,0,0,.812-.1748l.0771.252a1.8848,1.8848,0,0,1-.9311.2031c-.9038,0-1.4292-.7-1.4292-1.6948,0-1.1064.5674-1.8,1.3589-1.8.9736,0,1.17.9663,1.17,1.4844a1.6985,1.6985,0,0,1-.0073.2031Zm1.87-.2588c.0141-.5747-.231-1.1558-.8755-1.1558-.6372,0-.9243.63-.98,1.1558Z"/><path d="M73.1455,23.4376l.7144,2.1011c.1049.2871.1963.5742.2729.8545h.021c.07-.2661.1753-.56.28-.8545l.7143-2.1011h.3365l-1.2188,3.3618h-.28l-1.1767-3.3618Z"/><path d="M76.1064,22.0787h.3223v4.4478H78.32v.2729H76.1064Z"/><path d="M80.2021,26.8693c-.9946,0-1.8-.8331-1.8-2.3951,0-1.604.8335-2.4653,1.87-2.4653,1.0156,0,1.7929.8472,1.7929,2.395,0,1.6953-.8891,2.4654-1.8559,2.4654Zm.0279-.28c1.0088,0,1.499-1.0786,1.499-2.1714,0-.9663-.4341-2.1289-1.4917-2.1289s-1.499,1.1274-1.499,2.1782c0,1.0151.49,2.1221,1.4848,2.1221Z"/><path d="M85.8657,26.6241a3.2578,3.2578,0,0,1-1.19.2242,1.9836,1.9836,0,0,1-1.478-.5669,2.5607,2.5607,0,0,1-.6162-1.8,2.1933,2.1933,0,0,1,2.22-2.4512,2.3054,2.3054,0,0,1,.9521.1821l-.105.273A1.9442,1.9442,0,0,0,84.78,22.31c-1.086,0-1.8633.7422-1.8633,2.122,0,1.4288.7353,2.1363,1.8071,2.1363a1.9171,1.9171,0,0,0,.8194-.1333v-1.709h-.9873V24.46h1.31Z"/><path d="M87.6489,27.08l1.9893-5.0708H89.96L87.9639,27.08Z"/><path d="M91.8906,22.1417a4.1572,4.1572,0,0,1,.9033-.0976,1.5722,1.5722,0,0,1,1.17.3711,1.22,1.22,0,0,1,.3222.8613,1.2446,1.2446,0,0,1-.8755,1.2329v.0137c.3711.1123.5953.4692.7071,1.0434a6.0307,6.0307,0,0,0,.3222,1.2329H94.104a6.9147,6.9147,0,0,1-.2871-1.1626c-.1333-.6792-.4136-.98-1.0088-1.0014h-.5952v2.164h-.3223Zm.3223,2.2344h.602a1.0324,1.0324,0,0,0,1.1421-1.0435c0-.7006-.4482-1.0224-1.17-1.0224a2.5158,2.5158,0,0,0-.5742.0556Z"/><path d="M97.1558,24.4532H95.4609v2.066h1.9048v.28h-2.227V22.0787h2.122v.28h-1.8v1.814h1.6949Z"/><path d="M97.9736,26.3092a1.7089,1.7089,0,0,0,.9107.2729.9544.9544,0,0,0,1.0576-.9731c0-.5186-.2734-.8335-.8613-1.1069-.5884-.2451-1.1138-.6372-1.1138-1.3028a1.1968,1.1968,0,0,1,1.2886-1.1836,1.55,1.55,0,0,1,.84.21l-.126.2729a1.3664,1.3664,0,0,0-.7422-.2031.8459.8459,0,0,0-.9384.84c0,.54.3012.7915.9033,1.0718.7.3433,1.0718.7144,1.0718,1.3726a1.27,1.27,0,0,1-1.4009,1.2817,1.87,1.87,0,0,1-1.0088-.2871Z"/><path d="M101.4248,22.0787v4.7207h-.3223V22.0787Z"/><path d="M102.4819,26.7994V22.0787h.315l1.5761,2.6826c.336.5953.6021,1.0928.8194,1.5831l.0141-.0074c-.0493-.7143-.0561-1.2324-.0561-1.9887v-2.27h.3149v4.7207h-.3081L103.5884,24.11a14.7565,14.7565,0,0,1-.8194-1.583l-.021.0073c.042.623.0489,1.1343.0489,1.9961v2.269Z"/><path d="M106.5273,22.0787h2.1221v.28h-1.8v1.8843h1.66v.28h-1.66v2.2763h-.3223Z"/><path d="M110.9805,26.8693c-.9947,0-1.8-.8331-1.8-2.3951,0-1.604.8335-2.4653,1.87-2.4653,1.0156,0,1.793.8472,1.793,2.395,0,1.6953-.8892,2.4654-1.856,2.4654Zm.0278-.28c1.0088,0,1.499-1.0786,1.499-2.1714,0-.9663-.4341-2.1289-1.4917-2.1289s-1.499,1.1274-1.499,2.1782c0,1.0151.49,2.1221,1.4849,2.1221Z"/><path d="M114.5,27.08l1.9893-5.0708h.3217L114.8149,27.08Z"/><path d="M118.6021,26.3092a1.7082,1.7082,0,0,0,.9106.2729.9544.9544,0,0,0,1.0576-.9731c0-.5186-.2734-.8335-.8613-1.1069-.5884-.2451-1.1138-.6372-1.1138-1.3028a1.1968,1.1968,0,0,1,1.2886-1.1836,1.55,1.55,0,0,1,.84.21l-.126.2729a1.366,1.366,0,0,0-.7421-.2031.846.846,0,0,0-.9385.84c0,.54.3008.7915.9033,1.0718.7.3433,1.0718.7144,1.0718,1.3726a1.27,1.27,0,0,1-1.4009,1.2817,1.87,1.87,0,0,1-1.0088-.2871Z"/><path d="M122.2568,25.1534l-.5185,1.646h-.3291l1.5268-4.7207h.3155l1.5268,4.7207h-.3364l-.5254-1.646Zm1.5689-.2729-.4971-1.5059a8.9574,8.9574,0,0,1-.2314-.9033h-.021c-.063.3081-.14.5811-.231.8965l-.4975,1.5127Z"/><path d="M125.4834,22.1417a4.1572,4.1572,0,0,1,.9033-.0976,1.5718,1.5718,0,0,1,1.17.3711,1.22,1.22,0,0,1,.3223.8613,1.2446,1.2446,0,0,1-.8755,1.2329v.0137c.3711.1123.5952.4692.707,1.0434a6.0279,6.0279,0,0,0,.3223,1.2329h-.3359a6.9147,6.9147,0,0,1-.2871-1.1626c-.1333-.6792-.4136-.98-1.0088-1.0014h-.5952v2.164h-.3223Zm.3223,2.2344h.602a1.0324,1.0324,0,0,0,1.1421-1.0435c0-.7006-.4482-1.0224-1.17-1.0224a2.5158,2.5158,0,0,0-.5742.0556Z"/><path d="M129.0532,22.0787v4.7207h-.3222V22.0787Z"/><path d="M130.9849,27.08l1.9892-5.0708h.3218L131.3,27.08Z"/><path d="M135.5493,22.0787v4.7207h-.3222V22.0787Z"/><path d="M136.6128,22.1417a5.1231,5.1231,0,0,1,1.0225-.0976,2.2048,2.2048,0,0,1,1.625.5459,2.2931,2.2931,0,0,1,.6093,1.7231,2.6823,2.6823,0,0,1-.5883,1.8491,2.3066,2.3066,0,0,1-1.7862.6724,7.2309,7.2309,0,0,1-.8823-.042Zm.3223,4.3848a3.9324,3.9324,0,0,0,.6025.0278c1.2676,0,1.9956-.7212,1.9956-2.22a1.7593,1.7593,0,0,0-1.9116-2.0171,3.4024,3.4024,0,0,0-.6865.063Z"/><path d="M140.6587,22.1417a4.1572,4.1572,0,0,1,.9033-.0976,1.571,1.571,0,0,1,1.17.3711,1.22,1.22,0,0,1,.3223.8613,1.2446,1.2446,0,0,1-.8755,1.2329v.0137c.3711.1123.5952.4692.707,1.0434a6.0279,6.0279,0,0,0,.3223,1.2329h-.3359a6.8628,6.8628,0,0,1-.2871-1.1626c-.1333-.6792-.4136-.98-1.0088-1.0014h-.5952v2.164h-.3223Zm.3223,2.2344h.6025a1.0323,1.0323,0,0,0,1.1416-1.0435c0-.7006-.4482-1.0224-1.17-1.0224a2.5158,2.5158,0,0,0-.5742.0556Z"/><path d="M144.229,22.0787v4.7207h-.3223V22.0787Z"/><path d="M145.1528,26.3092a1.7089,1.7089,0,0,0,.9107.2729.9544.9544,0,0,0,1.0576-.9731c0-.5186-.2734-.8335-.8613-1.1069-.5884-.2451-1.1138-.6372-1.1138-1.3028a1.1968,1.1968,0,0,1,1.2886-1.1836,1.55,1.55,0,0,1,.84.21l-.126.2729a1.3664,1.3664,0,0,0-.7422-.2031.8459.8459,0,0,0-.9384.84c0,.54.3007.7915.9033,1.0718.7.3433,1.0718.7144,1.0718,1.3726a1.27,1.27,0,0,1-1.4009,1.2817,1.87,1.87,0,0,1-1.0088-.2871Z"/><line x1="0.9591" y1="36.1069" x2="242.1513" y2="36.1069" style="fill:none;stroke:#e6e7e7;stroke-miterlimit:10;stroke-width:0.25px"/><line x1="279.1389" y1="36.1069" x2="318.76" y2="36.1069" style="fill:none;stroke:#e6e7e7;stroke-miterlimit:10;stroke-width:0.25px"/><circle cx="316.0167" cy="24.4233" r="2.4525" style="fill:#fff"/><path d="M316.0588,21.7158a2.68,2.68,0,0,1,2.7012,2.6964,2.5676,2.5676,0,0,1-.7706,1.8971,2.6614,2.6614,0,0,1-1.9306.7993,2.7128,2.7128,0,0,1-2.6916-2.6963,2.6375,2.6375,0,0,1,.7945-1.9115A2.5844,2.5844,0,0,1,316.0588,21.7158Zm.01.4864a2.0913,2.0913,0,0,0-1.5552.65,2.1532,2.1532,0,0,0-.66,1.56,2.236,2.236,0,0,0,2.2147,2.2053,2.1652,2.1652,0,0,0,1.57-.66,2.0638,2.0638,0,0,0,.6356-1.5457,2.2112,2.2112,0,0,0-2.2052-2.21Zm-1.2038,1.83a1.2035,1.2035,0,0,1,.4-.768,1.1766,1.1766,0,0,1,.7848-.272,1.3061,1.3061,0,0,1,1.0112.4092,1.4923,1.4923,0,0,1,.3755,1.05,1.4426,1.4426,0,0,1-.39,1.0327,1.3308,1.3308,0,0,1-1.0113.4117,1.2,1.2,0,0,1-.79-.2745,1.1664,1.1664,0,0,1-.4-.78h.6791q.024.4913.5923.4912a.535.535,0,0,0,.4574-.2456,1.3686,1.3686,0,0,0,.0146-1.3072.6073.6073,0,0,0-1.0642.2527h.1974l-.5344.5345-.5344-.5345.2116,0Z"/><path d="M299.4332,24.4109a2.3488,2.3488,0,0,1-.3325,1.1994,2.3808,2.3808,0,0,1-.8936.8844,2.5227,2.5227,0,0,1-1.2365.3252,2.486,2.486,0,0,1-2.14-1.21,2.4133,2.4133,0,0,1,0-2.4091,2.4865,2.4865,0,0,1,2.14-1.21,2.5217,2.5217,0,0,1,1.2365.3253,2.4316,2.4316,0,0,1,1.2261,2.094Z" style="fill:#fff;fill-rule:evenodd"/><path d="M296.9394,21.7338a2.7132,2.7132,0,0,1,1.9535.7827,2.5825,2.5825,0,0,1,.5923.864,2.88,2.88,0,0,1,.1974,1.0368,2.519,2.519,0,0,1-.7793,1.87,2.7958,2.7958,0,0,1-1.9639.8031,2.78,2.78,0,0,1-1.039-.2033,2.8325,2.8325,0,0,1-.8937-.59,2.69,2.69,0,0,1-.5922-.864,2.6172,2.6172,0,0,1-.2078-1.0165,2.6295,2.6295,0,0,1,.81-1.9008,2.625,2.625,0,0,1,1.9223-.7827Zm.01.4879a2.1488,2.1488,0,0,0-1.5794.64,2.2237,2.2237,0,0,0-.4987.7115,2.1455,2.1455,0,0,0-.1663.8437,2.0485,2.0485,0,0,0,.1663.8234,2.1178,2.1178,0,0,0,.4987.7115,2.2461,2.2461,0,0,0,.7274.4778,2.19,2.19,0,0,0,.852.1626,2.2271,2.2271,0,0,0,.8521-.1626,2.5219,2.5219,0,0,0,.7481-.4778,2.054,2.054,0,0,0,.6338-1.5349,2.0762,2.0762,0,0,0-.1662-.8437,2.1586,2.1586,0,0,0-.478-.7115,2.2061,2.2061,0,0,0-1.59-.64Zm-.0312,1.7484-.374.1829a.3141.3141,0,0,0-.1351-.1626.3877.3877,0,0,0-.1663-.0508c-.2389,0-.3636.1524-.3636.4777a.5391.5391,0,0,0,.0935.3355.3067.3067,0,0,0,.27.1321.3459.3459,0,0,0,.3429-.2236l.3325.1626a.7185.7185,0,0,1-.3013.305.7291.7291,0,0,1-.4156.1118.8106.8106,0,0,1-.5923-.2135.8529.8529,0,0,1-.2286-.61.8359.8359,0,0,1,.2286-.61.7842.7842,0,0,1,.5819-.2236.7632.7632,0,0,1,.7273.3863Zm1.5794,0-.3636.1829a.3648.3648,0,0,0-.3118-.2134c-.2389,0-.3636.1524-.3636.4777a.5391.5391,0,0,0,.0935.3355.3067.3067,0,0,0,.27.1321.355.355,0,0,0,.3429-.2236l.3429.1626a.8077.8077,0,0,1-.3117.305.7291.7291,0,0,1-.4156.1118.7487.7487,0,0,1-.81-.8234.7959.7959,0,0,1,.2286-.61.8627.8627,0,0,1,1.2988.1627Z" style="fill-rule:evenodd"/><path d="M305.749,24.4515a2.24,2.24,0,0,1-.3221,1.1791,2.4008,2.4008,0,0,1-.8832.8742,2.5447,2.5447,0,0,1-1.2157.3151,2.4749,2.4749,0,0,1-1.2053-.3151,2.4293,2.4293,0,0,1-.8936-.8742,2.3192,2.3192,0,0,1,0-2.3582,2.4308,2.4308,0,0,1,.8936-.8742,2.4749,2.4749,0,0,1,1.2053-.3151,2.5447,2.5447,0,0,1,1.2157.3151,2.4023,2.4023,0,0,1,.8832.8742,2.2408,2.2408,0,0,1,.3221,1.1791Z" style="fill:#fff;fill-rule:evenodd"/><path d="M303.3176,21.7338a2.7048,2.7048,0,0,1,1.9431.7725,2.5792,2.5792,0,0,1,.8,1.911,2.45,2.45,0,0,1-.79,1.87,2.7008,2.7008,0,0,1-1.9535.8031,2.668,2.668,0,0,1-1.9327-.7929,2.5157,2.5157,0,0,1-.81-1.88,2.5982,2.5982,0,0,1,.81-1.911,2.6981,2.6981,0,0,1,1.9327-.7725Zm0,.4879a2.1655,2.1655,0,0,0-1.5794.64,2.13,2.13,0,0,0-.665,1.5552,2.07,2.07,0,0,0,.665,1.5349,2.1682,2.1682,0,0,0,1.5794.6506,2.2422,2.2422,0,0,0,1.6-.6608,1.98,1.98,0,0,0,.6442-1.5349,2.088,2.088,0,0,0-.6546-1.545,2.1891,2.1891,0,0,0-1.59-.64Zm.7378,1.5247v1.0978h-.3118v1.3011h-.852V24.8442H302.58V23.7464a.1665.1665,0,0,1,.0519-.1219.1742.1742,0,0,1,.1247-.0509h1.1222a.174.174,0,0,1,.1247.0509.1662.1662,0,0,1,.052.1219Zm-1.1222-.6912a.3845.3845,0,1,1,.3844.3761.3375.3375,0,0,1-.3844-.3761Z" style="fill-rule:evenodd"/><path d="M312.122,24.4007a2.4128,2.4128,0,0,1-.3325,1.21,2.4383,2.4383,0,0,1-.9143.8844,2.4959,2.4959,0,0,1-3.377-.8844,2.4128,2.4128,0,0,1-.3325-1.21,2.3578,2.3578,0,0,1,.3325-1.21,2.5034,2.5034,0,0,1,3.377-.8844,2.4375,2.4375,0,0,1,.9143.8844,2.3578,2.3578,0,0,1,.3325,1.21Z" style="fill:#fff;fill-rule:evenodd"/><path d="M311.6337,22.5063a2.817,2.817,0,0,0-3.8758,0,2.5983,2.5983,0,0,0-.81,1.911,2.548,2.548,0,0,0,.81,1.88,2.6679,2.6679,0,0,0,1.9327.7929,2.774,2.774,0,0,0,1.9639-.7929,2.5323,2.5323,0,0,0,.7793-1.88,2.5792,2.5792,0,0,0-.8-1.911Zm-.3429,3.4357a2.2248,2.2248,0,0,1-1.6.6608,2.1919,2.1919,0,0,1-1.5794-.6506,2.0756,2.0756,0,0,1-.665-1.5451,2.3219,2.3219,0,0,1,.1143-.7115l.7274.3151h-.052v.3253h.26c0,.0407-.01.0813-.01.1321v.0712h-.2494v.3253h.3013a1.25,1.25,0,0,0,.26.5794,1.3587,1.3587,0,0,0,1.1118.5082,1.6125,1.6125,0,0,0,.717-.1626l-.1039-.4981a1.523,1.523,0,0,1-.53.1118A.8246.8246,0,0,1,309.4,25.18a.8144.8144,0,0,1-.1455-.3151h.9975l1.4131.61a1.7768,1.7768,0,0,1-.374.4675Zm-1.7768-1.4027h0Zm.852-.2033h.0416v-.3253h-.7793l-.3118-.1321a.3816.3816,0,0,1,.0936-.1525.7007.7007,0,0,1,.5611-.244,1.5316,1.5316,0,0,1,.5091.1017l.1351-.5082a1.8313,1.8313,0,0,0-.6962-.1322,1.4183,1.4183,0,0,0-1.06.4574c-.0519.061-.1039.1423-.1558.2135l-.8936-.3863a2.0314,2.0314,0,0,1,.3013-.3659,2.1747,2.1747,0,0,1,1.5794-.6506,2.1982,2.1982,0,0,1,1.59.6506,2.0628,2.0628,0,0,1,.6546,1.5552,2.5876,2.5876,0,0,1-.0623.5692l-1.5067-.6505Z" style="fill-rule:evenodd"/><path d="M244.4736,33.7364h.2305v1.5015h.01a.8454.8454,0,0,1,.2905-.3052.7945.7945,0,0,1,.4355-.12c.2251,0,.7408.125.7408.9307v1.5215H245.95V35.7882c0-.4053-.145-.7754-.5752-.7754a.6892.6892,0,0,0-.646.5254.72.72,0,0,0-.0249.22v1.5064h-.2305Z" style="fill:#d9d9d9"/><path d="M247.2041,34.337v.5254h.6157v.19h-.6157v1.5811c0,.3154.1.4756.3252.4756a.6535.6535,0,0,0,.2305-.03l.03.18a.7551.7551,0,0,1-.2954.05.46.46,0,0,1-.3852-.16.8775.8775,0,0,1-.1353-.57V35.0528h-.3755v-.19h.3755v-.4306Z" style="fill:#d9d9d9"/><path d="M248.6143,34.337v.5254h.6157v.19h-.6157v1.5811c0,.3154.1.4756.3252.4756a.6533.6533,0,0,0,.23-.03l.03.18a.7551.7551,0,0,1-.2954.05.4605.4605,0,0,1-.3853-.16.8776.8776,0,0,1-.1352-.57V35.0528h-.3755v-.19h.3755v-.4306Z" style="fill:#d9d9d9"/><path d="M249.709,35.6232c0-.3355-.01-.5606-.02-.7608h.2207l.0146.4155h.01a.8269.8269,0,0,1,.7759-.4653c.5351,0,.9209.4653.9209,1.2207,0,.876-.4659,1.2813-.9815,1.2813a.7728.7728,0,0,1-.7-.4h-.01v1.3315h-.23Zm.23.7158a.78.78,0,0,0,.02.19.7016.7016,0,0,0,.6806.5908c.5,0,.7559-.4653.7559-1.0761,0-.5357-.25-1.0362-.7407-1.0362a.7542.7542,0,0,0-.6909.6206,1.4075,1.4075,0,0,0-.0249.2Z" style="fill:#d9d9d9"/><path d="M252.0986,36.9542a.8847.8847,0,0,0,.4854.1553c.34,0,.5156-.1953.5156-.45,0-.2505-.13-.3955-.4507-.5459-.355-.165-.5757-.3652-.5757-.6655a.6463.6463,0,0,1,.6958-.6353.8777.8777,0,0,1,.4908.145l-.0952.19a.7092.7092,0,0,0-.4253-.1348.399.399,0,0,0-.4356.4c0,.2349.14.34.44.49.34.1553.5855.3506.5855.7159a.6848.6848,0,0,1-.7608.69,1.054,1.054,0,0,1-.5605-.16Z" style="fill:#d9d9d9"/><path d="M253.9839,35.4278a.1994.1994,0,0,1-.19-.2148.2023.2023,0,0,1,.1953-.2207.2.2,0,0,1,.1953.2207.1974.1974,0,0,1-.1953.2148Zm0,1.8868a.2.2,0,0,1-.19-.2149.2022.2022,0,0,1,.1953-.22.2188.2188,0,0,1,0,.4351Z" style="fill:#d9d9d9"/><path d="M254.3936,37.465l1.4213-3.6236h.23l-1.4262,3.6236Z" style="fill:#d9d9d9"/><path d="M256.0435,37.465l1.4213-3.6236h.23l-1.4267,3.6236Z" style="fill:#d9d9d9"/><path d="M258.0938,37.2648v-2.212h-.33v-.19h.33v-.16c0-.5855.2651-1.0161.871-1.0161a.8779.8779,0,0,1,.5054.1552l-.1.18a.8118.8118,0,0,0-.4453-.1353c-.4756,0-.6006.3707-.6006.836v.14h1.251v2.4024h-.2305v-2.212h-1.02v2.212Z" style="fill:#d9d9d9"/><path d="M262.0352,33.7364v2.9878c0,.16.01.3955.02.5406H261.85l-.0151-.4156H261.82a.8.8,0,0,1-.751.4654c-.5156,0-.9257-.4551-.9257-1.2159,0-.8208.4453-1.2861.9658-1.2861a.7372.7372,0,0,1,.6855.39h.01V33.7364Zm-.23,2.0621a1.0167,1.0167,0,0,0-.02-.2056.69.69,0,0,0-.6607-.5855c-.4756,0-.7456.4756-.7456,1.0713,0,.5406.23,1.041.7305,1.041a.7064.7064,0,0,0,.6758-.6005.7868.7868,0,0,0,.02-.1905Z" style="fill:#d9d9d9"/><path d="M262.7734,33.7364h.2305v3.5284h-.2305Z" style="fill:#d9d9d9"/><path d="M263.8232,36.0187c0,.8305.3956,1.0908.8208,1.0908a1.1453,1.1453,0,0,0,.5806-.125l.0552.18a1.3479,1.3479,0,0,1-.6655.145c-.6455,0-1.021-.5005-1.021-1.211,0-.791.4052-1.2861.9707-1.2861.6958,0,.8359.69.8359,1.0606a1.2966,1.2966,0,0,1-.0049.1455Zm1.3365-.1856c.01-.41-.1651-.8257-.6255-.8257-.4556,0-.6607.4507-.7007.8257Z" style="fill:#d9d9d9"/><path d="M265.9937,37.3146a.2.2,0,0,1-.19-.2149.2022.2022,0,0,1,.1953-.22.2188.2188,0,0,1,0,.4351Z" style="fill:#d9d9d9"/><path d="M268.2549,37.17a1.3213,1.3213,0,0,1-.6109.14c-.6254,0-1.0459-.48-1.0459-1.2261a1.154,1.154,0,0,1,1.1211-1.271,1.0549,1.0549,0,0,1,.5406.13l-.08.1953a.9565.9565,0,0,0-.4854-.12c-.581,0-.8613.51-.8613,1.061,0,.63.3506,1.0308.8511,1.0308a1.156,1.156,0,0,0,.51-.12Z" style="fill:#d9d9d9"/><path d="M268.7686,35.4327c0-.2451-.01-.3852-.0206-.57h.2154l.0151.3955h.01a.7946.7946,0,0,1,.7358-.4453c.24,0,.751.1348.751.9458v1.5064h-.2305V35.7985c0-.4058-.1352-.7857-.5854-.7857a.6765.6765,0,0,0-.6358.5352.9646.9646,0,0,0-.0249.2153v1.5015h-.23Z" style="fill:#d9d9d9"/><path d="M271.2031,35.5333c0-.2207-.01-.4609-.0195-.6709h.2148l.01.4556h.01a.7.7,0,0,1,.6357-.5054c.03,0,.0552.0049.08.0049v.23a.4988.4988,0,0,0-.09-.0049c-.3251,0-.5454.2905-.5952.6509a1.54,1.54,0,0,0-.0151.22v1.3516h-.2305Z" style="fill:#d9d9d9"/><path d="M272.4683,36.9542a.884.884,0,0,0,.4853.1553c.34,0,.5156-.1953.5156-.45,0-.2505-.13-.3955-.4506-.5459-.3555-.165-.5752-.3652-.5752-.6655a.6458.6458,0,0,1,.6953-.6353.8776.8776,0,0,1,.4907.145l-.0952.19a.7089.7089,0,0,0-.4253-.1348.3987.3987,0,0,0-.4356.4c0,.2349.14.34.4405.49.34.1553.5854.3506.5854.7159a.6849.6849,0,0,1-.7607.69,1.0555,1.0555,0,0,1-.5606-.16Z" style="fill:#d9d9d9"/><path d="M274.2935,37.3146a.2.2,0,0,1-.19-.2149.2022.2022,0,0,1,.1953-.22.2188.2188,0,0,1,0,.4351Z" style="fill:#d9d9d9"/><path d="M275.103,37.2648v-2.212h-.3305v-.19h.3305v-.145a1.195,1.195,0,0,1,.24-.8257.6984.6984,0,0,1,.5-.2055.6609.6609,0,0,1,.3251.0751l-.07.1851a.5924.5924,0,0,0-.2754-.06c-.4106,0-.4907.3956-.4907.8257v.15h.5859v.19h-.5859v2.212Z" style="fill:#d9d9d9"/><path d="M276.2783,35.5333c0-.2207-.01-.4609-.0205-.6709h.2153l.01.4556h.01a.7.7,0,0,1,.6357-.5054c.03,0,.0552.0049.08.0049v.23a.4959.4959,0,0,0-.09-.0049c-.3256,0-.5459.2905-.5957.6509a1.54,1.54,0,0,0-.0151.22v1.3516h-.23Z" style="fill:#d9d9d9"/></svg>