<svg xmlns="http://www.w3.org/2000/svg" viewBox="0 0 37.5373 34.8434"><path d="M19.8236,8.3758V.9771H9.6132A3.2082,3.2082,0,0,0,6.4144,4.1759V27.6783a3.2081,3.2081,0,0,0,3.1988,3.1988H27.1747a3.2082,3.2082,0,0,0,3.1988-3.1988V11.5746H23.0224A3.2082,3.2082,0,0,1,19.8236,8.3758Z" style="fill:#fff;stroke:#000;stroke-linejoin:round;stroke-width:1.95428428707763px"/><line x1="19.8236" y1="0.9771" x2="30.3973" y2="11.5508" style="fill:#fff;stroke:#000;stroke-linejoin:round;stroke-width:1.95428428707763px"/><path d="M28.3957,30.3053H20.6325a1.1822,1.1822,0,0,1-1.1807-1.1806V22.9171a1.184,1.184,0,0,1,1.1753-1.1811l7.7686-.0352V18.298l8.5854,7.6367-8.5854,8.0435Z" style="fill:#e12229"/><path d="M28.7705,19.1336l7.6544,6.8084-7.6544,7.1711V29.93H20.6327a.8057.8057,0,0,1-.8058-.8056V22.9169a.8057.8057,0,0,1,.8021-.8057l8.1415-.0367V19.1336m-.75-1.6709v3.8652l-7.3949.0333a1.5589,1.5589,0,0,0-1.5487,1.5557v6.2078A1.5575,1.5575,0,0,0,20.6327,30.68h7.3878v4.1631l1.2628-1.183,7.6544-7.171.6-.5618-.6139-.546L29.269,18.5731l-1.2485-1.11Z" style="fill:#fff"/><rect x="5.252" y="9.659" width="7.0866" height="7.0866" style="fill:#fff"/><path d="M8.9294,20.0123a30.3254,30.3254,0,0,1-4.9673-.4189C1.8185,19.1344.5,17.7316.5,15.9279V10.3771C.5,8.5739,1.8073,7.18,3.9108,6.7394a30.3865,30.3865,0,0,1,9.9863-.0039c2.107.3872,3.4629,1.8193,3.4629,3.6494v5.5513a3.82,3.82,0,0,1-3.436,3.6631,30.501,30.501,0,0,1-4.9937.413Zm-1.482-4.5947,3.6187-2.2036.06-.0449-3.6787-2.207Z" style="fill:#ed1c24"/><path d="M8.9142,6.8244a29.8856,29.8856,0,0,1,4.9008.4044A3.323,3.323,0,0,1,16.86,10.385v5.5511a3.3355,3.3355,0,0,1-3.0293,3.172,29.9807,29.9807,0,0,1-4.9008.4044A29.6913,29.6913,0,0,1,4.0452,19.1C2.1578,18.6957,1,17.5142,1,15.9281v-5.551c0-1.5623,1.1578-2.76,3.0134-3.1483a29.8874,29.8874,0,0,1,4.9008-.4044M7.3518,15.96a.3812.3812,0,0,0,.1985-.0557l3.965-2.379v-.0238a.4046.4046,0,0,0,0-.682L7.55,10.44a.43.43,0,0,0-.4045,0,.4127.4127,0,0,0-.1982.349v4.7581a.4126.4126,0,0,0,.1982.3648.4548.4548,0,0,0,.1983.0476l.0077,0M8.9142,5.8244A30.9912,30.9912,0,0,0,3.85,6.2423C1.4949,6.7344,0,8.3544,0,10.3771v5.551c0,2.0528,1.47,3.6428,3.8356,4.15a30.8109,30.8109,0,0,0,5.0929.4346,31.0686,31.0686,0,0,0,5.0661-.418c2.3571-.4467,3.8656-2.0774,3.8656-4.1584V10.385c0-2.0833-1.5169-3.7082-3.8644-4.14a31.02,31.02,0,0,0-5.0816-.4209ZM7.9472,14.5l0-2.656L10.16,13.1723,7.9472,14.5Z" style="fill:#fff"/></svg>